<svg width="32" height="32" viewBox="0 0 32 32" fill="none" xmlns="http://www.w3.org/2000/svg">
  <rect width="32" height="32" rx="6" fill="#dc2626"/>
  <path d="M8 20c0-1.1.9-2 2-2h12c1.1 0 2 .9 2 2s-.9 2-2 2H10c-1.1 0-2-.9-2-2z" fill="white"/>
  <path d="M6 16c0-.6.4-1 1-1h18c.6 0 1 .4 1 1s-.4 1-1 1H7c-.6 0-1-.4-1-1z" fill="white"/>
  <circle cx="10" cy="24" r="2" fill="white"/>
  <circle cx="22" cy="24" r="2" fill="white"/>
  <path d="M12 12h8v4h-8z" fill="white" rx="1"/>
  <path d="M16 8c1.1 0 2 .9 2 2v2h-4v-2c0-1.1.9-2 2-2z" fill="white"/>
</svg>
