<svg version="1.0" xmlns="http://www.w3.org/2000/svg" width="700" height="700" viewBox="0 0 700 700">
  <g transform="translate(0,700) scale(0.1,-0.1)" fill="#000000" stroke="none">
    <path d="M1500 5500 c-275 -50 -500 -275 -550 -550 -25 -137 -25 -2763 0 -2900 50 -275 275 -500 550 -550 137 -25 2763 -25 2900 0 275 50 500 275 550 550 25 137 25 2763 0 2900 -50 275 -275 500 -550 550 -137 25 -2763 25 -2900 0z m2400 -1000 c275 0 500 -225 500 -500 s-225 -500 -500 -500 -500 225 -500 500 225 500 500 500z m-2000 0 c275 0 500 -225 500 -500 s-225 -500 -500 -500 -500 225 -500 500 225 500 500 500z"/>
  </g>
</svg>
